#tb 0: 1/10
#media_type 0: video
#codec_id 0: rawvideo
#dimensions 0: 640x480
#sar 0: 0/1
0,          0,          0,        1,   921600, 0x0d03844f
0,          1,          1,        1,   921600, 0x0d03844f
0,          2,          2,        1,   921600, 0x649cdcea
0,          3,          3,        1,   921600, 0x649cdcea
0,          4,          4,        1,   921600, 0x9c7f22e8
0,          5,          5,        1,   921600, 0x9c7f22e8
0,          6,          6,        1,   921600, 0x3451514a
0,          7,          7,        1,   921600, 0x3451514a
0,          8,          8,        1,   921600, 0x8f19f600
0,          9,          9,        1,   921600, 0x8f19f600
0,         10,         10,        1,   921600, 0x07e7445b
0,         11,         11,        1,   921600, 0x07e7445b
0,         12,         12,        1,   921600, 0x873d1227
0,         13,         13,        1,   921600, 0x873d1227
0,         14,         14,        1,   921600, 0xbef62d86
0,         15,         15,        1,   921600, 0xbef62d86
0,         16,         16,        1,   921600, 0xcf84fee4
0,         17,         17,        1,   921600, 0xcf84fee4
0,         18,         18,        1,   921600, 0x5639e670
0,         19,         19,        1,   921600, 0x5639e670
